<svg id="eVXWrRixNEv1" xmlns="http://www.w3.org/2000/svg" xmlns:xlink="http://www.w3.org/1999/xlink" viewBox="0 0 1000 1000" shape-rendering="geometricPrecision" text-rendering="geometricPrecision"><g id="eVXWrRixNEv2" transform="matrix(0.98437429792205 0 0 0.98437429792205 -39.75657578288752 -489.31115972924579)"><path id="eVXWrRixNEv3" d="M118.304704,946.736128C118.304704,946.736128,118.484704,997.006128,118.484704,997.006128C118.324704,1022.726128,88.394704,1012.006128,88.304704,1047.186128C88.304704,1047.186128,88.124704,1096.826128,88.124704,1096.826128C88.124704,1122.376128,118.394704,1100.226128,118.394704,1151.826128C118.394704,1203.426128,88.394704,1181.826128,88.124704,1206.916128C88.124704,1206.916128,88.124704,1357.006128,88.124704,1357.006128C88.124704,1436.916128,88.394704,1436.646128,168.304704,1437.006128C168.304704,1437.006128,478.304704,1436.826128,478.304704,1436.826128C518.394704,1436.826128,523.394704,1406.826128,558.484704,1406.916128C558.484704,1406.916128,788.124704,1406.916128,788.124704,1406.916128C828.214704,1407.006128,798.214704,1436.916128,838.304704,1436.916128C838.304704,1436.916128,968.304704,1437.006128,968.304704,1437.006128C1019.904704,1437.006128,1018.214704,1436.736128,1018.304704,1386.916128C1018.304704,1386.916128,1018.394704,1227.096128,1018.394704,1227.096128C1018.214704,1201.466128,994.074704,1204.586128,993.754704,1178.136128C993.754704,1178.136128,993.834704,1049.306128,993.834704,1049.306128C993.594704,1023.426128,1018.504704,1023.346128,1019.474704,997.546128C1019.474704,997.546128,1019.474704,920.146128,1019.474704,920.146128C1019.554704,868.636128,990.064704,867.096128,938.304704,867.096128C938.304704,867.096128,578.214704,866.826128,578.214704,866.826128C528.214704,866.826128,543.804704,894.026128,491.884704,894.356128C441.254704,894.356128,448.554704,867.076128,398.464704,867.076128C398.464704,867.076128,198.214704,867.006128,198.214704,867.006128C133.214704,867.006128,118.304704,887.096128,118.304704,946.736128ZM968.034704,1096.826128C968.034704,1096.826128,968.214704,1366.646128,968.214704,1366.646128C968.304704,1406.916128,968.124704,1406.826128,948.124704,1406.736128C948.124704,1406.736128,888.394704,1406.916128,888.394704,1406.916128C862.664704,1406.826128,872.484704,1387.006128,838.214704,1387.006128C838.214704,1387.006128,528.304704,1387.006128,528.304704,1387.006128C492.764704,1386.826128,492.844704,1410.336128,451.574704,1410.336128C451.574704,1410.336128,168.214704,1406.916128,168.214704,1406.916128C153.574704,1406.826128,138.304704,1406.736128,138.304704,1386.916128C138.304704,1386.916128,138.394704,1256.916128,138.394704,1256.916128C138.394704,1179.516128,168.504704,1230.386128,168.184704,1152.346128C168.184704,1152.346128,168.214704,946.736128,168.214704,946.736128C168.214704,921.736128,168.304704,896.916128,198.214704,896.736128C198.214704,896.736128,278.214704,896.826128,278.214704,896.826128C328.124704,896.826128,293.484704,916.736128,348.214704,916.826128C348.214704,916.826128,398.214704,916.916128,398.214704,916.916128C398.214704,916.916128,398.394704,966.826128,398.394704,966.826128C398.394704,966.826128,578.394704,966.826128,578.394704,966.826128C578.394704,966.826128,578.214704,916.916128,578.214704,916.916128C578.214704,916.916128,738.304704,917.006128,738.304704,917.006128C763.484704,916.826128,753.124704,896.736128,778.304704,896.916128C778.304704,896.916128,918.214704,896.916128,918.214704,896.916128C938.124704,897.006128,938.304704,897.096128,938.304704,917.186128C938.304704,917.186128,938.304704,1047.006128,938.304704,1047.006128C938.124704,1076.646128,968.214704,1076.916128,968.034704,1096.826128ZM428.214704,916.766128C428.214704,916.766128,458.334704,916.886128,458.334704,916.886128C458.334704,916.886128,448.154704,946.886128,448.154704,946.886128C448.154704,946.886128,418.154704,946.886128,418.154704,946.886128C418.154704,946.886128,428.214704,916.766128,428.214704,916.766128ZM478.334704,916.886128C478.334704,916.886128,508.274704,916.886128,508.274704,916.886128C508.274704,916.886128,498.404704,946.766128,498.404704,946.766128C498.404704,946.766128,468.274704,946.706128,468.274704,946.706128C468.274704,946.706128,478.334704,916.886128,478.334704,916.886128ZM528.334704,916.826128C528.334704,916.826128,518.154704,946.886128,518.154704,946.886128C518.154704,946.886128,548.214704,946.886128,548.214704,946.886128C548.214704,946.886128,558.404704,916.886128,558.404704,916.886128C558.404704,916.886128,528.334704,916.826128,528.334704,916.826128Z" transform="matrix(1 0 0 1 -5.47528388499973 -146.90089400000011)" fill="rgb(176,136,249)" stroke="rgb(0,0,0)" stroke-width="3"/><path id="eVXWrRixNEv4" d="M473.126501,770.094956L503.066501,770.394956L493.196501,799.974956L463.066501,799.914956L473.126501,770.094956Z" fill="rgb(255,250,125)" stroke="rgb(0,0,0)" stroke-width="1"/><path id="eVXWrRixNEv5" d="M523.126501,770.394956L553.196501,770.394956L543.006501,799.914956L512.946501,799.914956L523.126501,770.394956Z" fill="none" stroke="none" stroke-width="3.840000"/><path id="eVXWrRixNEv6" d="M523.126501,769.974956L553.276501,770.124956Q543.626715,800.094956,543.006501,800.094956Q542.386287,800.094956,512.946501,799.914956Q523.156501,770.389179,523.126501,769.974956Z" fill="rgb(255,250,125)" stroke="rgb(0,0,0)" stroke-width="1"/><path id="eVXWrRixNEv7" d="M442.946501,800.094956Q442.946501,799.974956,453.126501,770.214956L423.006501,769.974956Q412.946501,800.034956,412.946501,799.974956C412.946501,799.914956,442.946501,800.214956,442.946501,800.094956Z" fill="none" stroke="none" stroke-width="3.840000"/><path id="eVXWrRixNEv8" d="M442.946501,800.116394L453.126501,770.214956L423.006501,769.974956L412.946501,799.944956L442.946501,800.116394Z" fill="rgb(255,250,125)" stroke="rgb(0,0,0)" stroke-width="1"/><path id="eVXWrRixNEv9" d="M932.829420,756.855776L932.829420,754.561135L925.693095,749.925234L919.756861,749.835234L764.480956,749.835234L751.891908,756.855776L750.970758,763.280773Q744.616530,769.865234,743.763613,769.865234C742.910696,769.865234,726.492052,769.865234,726.278823,769.865234Q726.065594,769.865234,696.853201,769.865234Q677.497530,769.865234,677.095849,769.865234Q676.694168,769.865234,572.919420,769.865234L572.739420,819.925234L392.739420,819.925234L392.739420,770.394956L347.787014,769.865234L325.299527,769.865234L310.154892,763.280773L302.123646,756.855776Q299.370076,754.561135,299.140612,754.561135C298.911148,754.561135,291.338830,750.015234,290.879902,750.015234Q290.420974,750.015234,272.739420,750.015234L251.870995,750.015234L185.087363,750.015234L176.482457,754.561135L170.984878,756.855776L168.594627,763.280773L162.829420,773.245234Q162.709420,790.854716,162.709420,791.093741Q162.709420,791.332766,162.829420,1031.235234Q156.338507,1049.587650,156.338507,1049.343360C156.338507,1049.099070,148.276927,1060.015234,148.032637,1060.015234Q147.788347,1060.015234,140.215348,1069.863745L137.039574,1080.195234L132.919420,1094.781355L132.919420,1245.004621Q137.039574,1251.493581,137.039574,1251.875285Q137.039574,1252.256989,148.032637,1259.835234L162.709420,1260.015234L251.870995,1260.015234L453.126501,1263.435234L462.799420,1263.435234L473.126501,1259.835234L486.409420,1251.875285L502.799420,1245.004621L512.679420,1240.105234L625.275883,1240.105234L772.829420,1240.105234L840.554794,1240.105234Q850.448972,1245.004621,852.519847,1245.004621Q854.590722,1245.004621,865.635386,1251.875285Q876.219856,1259.835234,876.449953,1259.835234C876.680050,1259.835234,954.452893,1259.835234,954.913087,1259.835234Q955.373281,1259.835234,962.559420,1251.875285L962.559420,1231.098358L962.739420,1116.740065L962.559420,949.925234Q962.559420,954.007158,962.559420,949.925234Q962.559420,945.843310,954.913087,934.411647Q942.649420,925.103006,942.649420,924.939697Q942.649420,924.776388,932.829420,912.364868L932.829420,902.405234L932.829420,756.855776" fill="rgb(255,250,125)" stroke="rgb(0,0,0)" stroke-width="3"/></g></svg>