<?xml version='1.0' encoding='utf-8'?>
<svg xmlns="http://www.w3.org/2000/svg" width="512" height="512" viewBox="0 0 1080 1920"> <path id="Nya fönstret" fill="none" stroke="black" stroke-width="1" d="M 110.09,939.91 C 110.09,939.91 110.27,990.18 110.27,990.18 110.11,1015.90 80.18,1005.18 80.09,1040.36 80.09,1040.36 79.91,1090.00 79.91,1090.00 79.91,1115.55 110.18,1093.40 110.18,1145.00 110.18,1196.60 80.18,1175.00 79.91,1200.09 79.91,1200.09 79.91,1350.18 79.91,1350.18 79.91,1430.09 80.18,1429.82 160.09,1430.18 160.09,1430.18 470.09,1430.00 470.09,1430.00 510.18,1430.00 515.18,1400.00 550.27,1400.09 550.27,1400.09 779.91,1400.09 779.91,1400.09 820.00,1400.18 790.00,1430.09 830.09,1430.09 830.09,1430.09 960.09,1430.18 960.09,1430.18 1011.69,1430.18 1010.00,1429.91 1010.09,1380.09 1010.09,1380.09 1010.18,1220.27 1010.18,1220.27 1010.00,1194.64 985.86,1197.76 985.54,1171.31 985.54,1171.31 985.62,1042.48 985.62,1042.48 985.38,1016.60 1010.29,1016.52 1011.26,990.72 1011.26,990.72 1011.26,913.32 1011.26,913.32 1011.34,861.81 981.85,860.27 930.09,860.27 930.09,860.27 570.00,860.00 570.00,860.00 520.00,860.00 535.59,887.20 483.67,887.53 433.04,887.53 440.34,860.25 390.25,860.25 390.25,860.25 190.00,860.18 190.00,860.18 125.00,860.18 110.09,880.27 110.09,939.91 Z M 959.82,1090.00 C 959.82,1090.00 960.00,1359.82 960.00,1359.82 960.09,1400.09 959.91,1400.00 939.91,1399.91 939.91,1399.91 880.18,1400.09 880.18,1400.09 854.45,1400.00 864.27,1380.18 830.00,1380.18 830.00,1380.18 520.09,1380.18 520.09,1380.18 484.55,1380.00 484.63,1403.51 443.36,1403.51 443.36,1403.51 160.00,1400.09 160.00,1400.09 145.36,1400.00 130.09,1399.91 130.09,1380.09 130.09,1380.09 130.18,1250.09 130.18,1250.09 130.18,1172.69 160.29,1223.56 159.97,1145.52 159.97,1145.52 160.00,939.91 160.00,939.91 160.00,914.91 160.09,890.09 190.00,889.91 190.00,889.91 270.00,890.00 270.00,890.00 319.91,890.00 285.27,909.91 340.00,910.00 340.00,910.00 390.00,910.09 390.00,910.09 390.00,910.09 390.18,960.00 390.18,960.00 390.18,960.00 570.18,960.00 570.18,960.00 570.18,960.00 570.00,910.09 570.00,910.09 570.00,910.09 730.09,910.18 730.09,910.18 755.27,910.00 744.91,889.91 770.09,890.09 770.09,890.09 910.00,890.09 910.00,890.09 929.91,890.18 930.09,890.27 930.09,910.36 930.09,910.36 930.09,1040.18 930.09,1040.18 929.91,1069.82 960.00,1070.09 959.82,1090.00 Z M 420.00,909.94 C 420.00,909.94 450.12,910.06 450.12,910.06 450.12,910.06 439.94,940.06 439.94,940.06 439.94,940.06 409.94,940.06 409.94,940.06 409.94,940.06 420.00,909.94 420.00,909.94 Z M 470.12,910.06 C 470.12,910.06 500.06,910.06 500.06,910.06 500.06,910.06 490.19,939.94 490.19,939.94 490.19,939.94 460.06,939.88 460.06,939.88 460.06,939.88 470.12,910.06 470.12,910.06 Z M 520.12,910.00 C 520.12,910.00 509.94,940.06 509.94,940.06 509.94,940.06 540.00,940.06 540.00,940.06 540.00,940.06 550.19,910.06 550.19,910.06 550.19,910.06 520.12,910.00 520.12,910.00 Z"/> </svg>